<svg xmlns="http://www.w3.org/2000/svg" version="1.1" xmlns:xlink="http://www.w3.org/1999/xlink" xmlns:svgjs="http://svgjs.dev/svgjs" width="1000" height="217" viewBox="0 0 1000 217"><g transform="matrix(1,0,0,1,-0.6060393082747737,0.2357885272362381)"><svg viewBox="0 0 396 86" data-background-color="#ffffff" preserveAspectRatio="xMidYMid meet" height="217" width="1000" xmlns="http://www.w3.org/2000/svg" xmlns:xlink="http://www.w3.org/1999/xlink"><defs></defs><g id="tight-bounds" transform="matrix(1,0,0,1,0.23999156607681016,-0.09344614443463684)"><svg viewBox="0 0 395.52 86.18689228886926" height="86.18689228886926" width="395.52"><g><svg viewBox="0 0 537.9001799283243 117.21264378450113" height="86.18689228886926" width="395.52"><g><rect width="6.11864373561739" height="117.21264378450113" x="120.24414421465093" y="0" fill="#010c80" opacity="1" stroke-width="0" stroke="transparent" fill-opacity="1" class="rect-o-0" data-fill-palette-color="primary" rx="1%" id="o-0" data-palette-color="#010c80"></rect></g><g transform="matrix(1,0,0,1,142.3801799283243,0.2915737407574568)"><svg viewBox="0 0 395.52 116.62949630298621" height="116.62949630298621" width="395.52"><g><svg viewBox="0 0 395.52 116.62949630298621" height="116.62949630298621" width="395.52"><g><svg viewBox="0 0 395.52 72.94455463982383" height="72.94455463982383" width="395.52"><g transform="matrix(1,0,0,1,0,0)"><svg width="395.52" viewBox="3.0799999237060547 -38.22999954223633 232.82998657226562 39.939998626708984" height="72.94455463982383" data-palette-color="#010c80"><svg></svg><g class="undefined-text-0" data-fill-palette-color="primary" id="text-0"><path d="M3.08-16.5v0c0-1.793 0.213-3.517 0.64-5.17 0.433-1.653 1.05-3.193 1.85-4.62 0.793-1.433 1.757-2.737 2.89-3.91 1.133-1.173 2.4-2.18 3.8-3.02 1.4-0.833 2.917-1.48 4.55-1.94 1.633-0.453 3.353-0.68 5.16-0.68v0c1.433 0 2.69 0.093 3.77 0.28 1.087 0.187 2.033 0.423 2.84 0.71 0.807 0.287 1.48 0.6 2.02 0.94 0.547 0.34 1 0.667 1.36 0.98v0c-0.02 0-0.03 0.057-0.03 0.17v0c0 0.24 0.02 0.687 0.06 1.34 0.047 0.653 0.097 1.377 0.15 2.17 0.06 0.8 0.11 1.61 0.15 2.43 0.04 0.82 0.06 1.533 0.06 2.14v0c0 0.093-0.033 0.203-0.1 0.33-0.067 0.12-0.23 0.18-0.49 0.18v0c-0.147 0-0.323-0.023-0.53-0.07v0c-0.347-0.1-0.78-0.323-1.3-0.67-0.52-0.353-1.127-0.72-1.82-1.1-0.687-0.387-1.46-0.73-2.32-1.03-0.853-0.3-1.783-0.45-2.79-0.45v0c-1.333 0-2.547 0.263-3.64 0.79-1.093 0.533-2.02 1.263-2.78 2.19-0.767 0.927-1.363 2.03-1.79 3.31-0.42 1.273-0.63 2.667-0.63 4.18v0c0 1.34 0.147 2.613 0.44 3.82 0.293 1.213 0.737 2.277 1.33 3.19 0.593 0.913 1.333 1.643 2.22 2.19 0.887 0.54 1.917 0.81 3.09 0.81v0c0.927 0 1.75-0.03 2.47-0.09 0.713-0.067 1.38-0.173 2-0.32 0.62-0.147 1.227-0.343 1.82-0.59 0.593-0.24 1.23-0.55 1.91-0.93v0c0.033-0.013 0.117-0.02 0.25-0.02v0c0.113 0 0.19 0.043 0.23 0.13 0.04 0.093 0.06 0.277 0.06 0.55v0 2.93c0 0.54-0.003 1.067-0.01 1.58-0.007 0.513-0.017 0.973-0.03 1.38-0.007 0.407-0.013 0.737-0.02 0.99-0.007 0.247-0.02 0.37-0.04 0.37v0c-0.747 0.473-1.547 0.86-2.4 1.16-0.853 0.307-1.733 0.543-2.64 0.71-0.9 0.173-1.807 0.287-2.72 0.34-0.913 0.06-1.793 0.09-2.64 0.09v0c-2.293 0-4.44-0.437-6.44-1.31-2.007-0.867-3.747-2.083-5.22-3.65-1.467-1.56-2.623-3.43-3.47-5.61-0.847-2.18-1.27-4.58-1.27-7.2zM47.95-34.99v0c-0.02 0.393-0.053 0.88-0.1 1.46-0.047 0.573-0.1 1.183-0.16 1.83-0.053 0.64-0.117 1.29-0.19 1.95-0.073 0.66-0.14 1.267-0.2 1.82-0.053 0.553-0.097 1.03-0.13 1.43-0.033 0.4-0.05 0.657-0.05 0.77v0c-0.067 1.007-0.137 1.943-0.21 2.81-0.073 0.86-0.15 1.713-0.23 2.56-0.08 0.847-0.167 1.72-0.26 2.62-0.087 0.907-0.18 1.903-0.28 2.99-0.093 1.093-0.203 2.307-0.33 3.64-0.12 1.333-0.247 2.863-0.38 4.59v0l10.11-1.02c0.46-0.053 0.837-0.08 1.13-0.08v0c0.353 0 0.577 0.057 0.67 0.17 0.087 0.113 0.13 0.293 0.13 0.54v0c0 0.033-0.007 0.08-0.02 0.14-0.02 0.053-0.057 0.16-0.11 0.32-0.06 0.167-0.143 0.403-0.25 0.71-0.107 0.313-0.247 0.747-0.42 1.3v0l-0.54 1.61c-0.18 0.52-0.347 0.987-0.5 1.4-0.153 0.413-0.347 0.773-0.58 1.08-0.227 0.3-0.51 0.54-0.85 0.72-0.34 0.173-0.78 0.287-1.32 0.34v0c-0.34 0.033-0.803 0.06-1.39 0.08-0.587 0.027-1.263 0.053-2.03 0.08-0.76 0.02-1.587 0.047-2.48 0.08-0.887 0.033-1.793 0.073-2.72 0.12v0c-0.907 0.033-1.827 0.057-2.76 0.07-0.927 0.007-1.803 0.017-2.63 0.03-0.833 0.02-1.6 0.037-2.3 0.05-0.7 0.02-1.277 0.037-1.73 0.05v0c-0.427 0-0.733-0.033-0.92-0.1-0.187-0.067-0.28-0.173-0.28-0.32v0c0-0.173 0.057-0.427 0.17-0.76 0.113-0.34 0.26-0.717 0.44-1.13 0.18-0.413 0.38-0.843 0.6-1.29 0.22-0.447 0.437-0.883 0.65-1.31v0l0.66-8.71c0.127-1.487 0.257-2.993 0.39-4.52 0.127-1.533 0.24-3.013 0.34-4.44v0l0.41-6.47c0.1-1.533 0.167-2.647 0.2-3.34 0.033-0.687 0.05-1.063 0.05-1.13v0c0.033-0.293 0.057-0.537 0.07-0.73 0.02-0.2 0.05-0.363 0.09-0.49 0.04-0.133 0.1-0.23 0.18-0.29 0.08-0.067 0.203-0.117 0.37-0.15v0l8.57-2.03c0.173-0.067 0.393-0.1 0.66-0.1v0c0.173 0 0.297 0.053 0.37 0.16 0.073 0.107 0.11 0.307 0.11 0.6v0c0 0.033-0.003 0.08-0.01 0.14-0.007 0.053-0.01 0.103-0.01 0.15zM69.65-16.65v0c0 1.173 0.127 2.35 0.38 3.53 0.253 1.18 0.673 2.24 1.26 3.18 0.587 0.947 1.36 1.713 2.32 2.3 0.96 0.587 2.147 0.88 3.56 0.88v0c1.093-0.067 2.05-0.29 2.87-0.67 0.82-0.387 1.53-0.883 2.13-1.49 0.593-0.613 1.083-1.313 1.47-2.1 0.393-0.793 0.703-1.623 0.93-2.49 0.227-0.873 0.387-1.767 0.48-2.68 0.087-0.907 0.13-1.783 0.13-2.63v0c0-1.16-0.153-2.28-0.46-3.36-0.313-1.08-0.777-2.037-1.39-2.87-0.62-0.827-1.39-1.493-2.31-2-0.92-0.507-1.99-0.76-3.21-0.76v0c-0.96 0-1.827 0.18-2.6 0.54-0.773 0.36-1.463 0.837-2.07 1.43-0.6 0.593-1.117 1.277-1.55 2.05-0.427 0.773-0.783 1.57-1.07 2.39-0.287 0.82-0.497 1.643-0.63 2.47-0.14 0.82-0.22 1.58-0.24 2.28zM74.41 1.27v0c-2.44 0-4.62-0.457-6.54-1.37-1.92-0.907-3.543-2.14-4.87-3.7-1.327-1.553-2.343-3.35-3.05-5.39-0.707-2.047-1.06-4.207-1.06-6.48v0c0-2.56 0.36-4.917 1.08-7.07 0.727-2.16 1.74-4.073 3.04-5.74 1.307-1.667 2.857-3.073 4.65-4.22 1.8-1.147 3.773-1.997 5.92-2.55v0c0.2 0 0.353-0.157 0.46-0.47 0.1-0.307 0.193-0.647 0.28-1.02 0.08-0.373 0.177-0.717 0.29-1.03 0.113-0.307 0.277-0.46 0.49-0.46v0c3.153 0.327 5.993 0.883 8.52 1.67 2.52 0.787 4.66 1.913 6.42 3.38 1.76 1.467 3.107 3.32 4.04 5.56 0.933 2.233 1.4 4.963 1.4 8.19v0c0 2.067-0.25 4.01-0.75 5.83-0.507 1.827-1.217 3.507-2.13 5.04-0.907 1.54-2 2.917-3.28 4.13-1.28 1.213-2.7 2.243-4.26 3.09-1.567 0.847-3.247 1.493-5.04 1.94-1.8 0.447-3.67 0.67-5.61 0.67zM103.91 0.88v-0.1c0.08-1.187 0.16-2.333 0.24-3.44 0.08-1.107 0.153-2.18 0.22-3.22v0l0.88-11.53c0.1-0.88 0.18-1.68 0.24-2.4 0.067-0.727 0.12-1.437 0.16-2.13 0.04-0.687 0.08-1.387 0.12-2.1 0.04-0.707 0.087-1.49 0.14-2.35v0c-0.54-0.02-1.107-0.03-1.7-0.03-0.593 0-1.217 0-1.87 0v0h-4.71c-0.18 0-0.29-0.067-0.33-0.2-0.04-0.14-0.06-0.267-0.06-0.38v0-0.17l2.69-7.06-0.03-0.1c0-0.08 0.053-0.147 0.16-0.2 0.107-0.06 0.347-0.107 0.72-0.14v0c2.247-0.127 4.423-0.253 6.53-0.38 2.107-0.12 4.19-0.23 6.25-0.33 2.06-0.093 4.12-0.19 6.18-0.29 2.06-0.1 4.18-0.19 6.36-0.27v0c0.193 0 0.4 0.027 0.62 0.08 0.22 0.047 0.33 0.223 0.33 0.53v0c0 0.033-0.007 0.067-0.02 0.1-0.02 0.033-0.03 0.067-0.03 0.1v0c-0.26 0.667-0.5 1.3-0.72 1.9-0.22 0.607-0.437 1.2-0.65 1.78-0.207 0.587-0.42 1.183-0.64 1.79-0.22 0.6-0.46 1.233-0.72 1.9v0c-0.02 0.02-0.053 0.097-0.1 0.23-0.047 0.14-0.12 0.297-0.22 0.47-0.1 0.167-0.23 0.323-0.39 0.47-0.16 0.147-0.363 0.23-0.61 0.25v0c-0.08-0.02-0.16-0.03-0.24-0.03-0.087 0-0.177 0-0.27 0v0h-6.52c-0.08 0.833-0.157 1.713-0.23 2.64-0.073 0.927-0.16 1.83-0.26 2.71v0l-1.78 19.07c-0.02 0.147-0.05 0.293-0.09 0.44-0.04 0.147-0.15 0.25-0.33 0.31v0l-6.91 2.49c-0.18 0.067-0.413 0.15-0.7 0.25-0.293 0.093-0.58 0.14-0.86 0.14v0c-0.227 0-0.427-0.057-0.6-0.17-0.167-0.113-0.25-0.323-0.25-0.63zM148.85-32.15v0c0-0.587 0.053-0.99 0.16-1.21 0.107-0.22 0.323-0.37 0.65-0.45v0l8.4-2.03c0.207-0.067 0.427-0.1 0.66-0.1v0c0.227 0 0.38 0.07 0.46 0.21 0.08 0.14 0.12 0.42 0.12 0.84v0l-0.29 3.84c-0.08 1.12-0.17 2.233-0.27 3.34-0.1 1.107-0.247 2.077-0.44 2.91v0l-0.44 3.46c-0.127 1.027-0.247 2.137-0.36 3.33-0.12 1.2-0.243 2.54-0.37 4.02v0l-1.15 12.04c-0.013 0.147-0.047 0.293-0.1 0.44-0.047 0.147-0.15 0.25-0.31 0.31v0c-0.113 0.053-0.38 0.16-0.8 0.32-0.413 0.167-0.903 0.353-1.47 0.56-0.573 0.213-1.187 0.437-1.84 0.67-0.647 0.24-1.263 0.457-1.85 0.65-0.587 0.193-1.107 0.357-1.56 0.49-0.46 0.127-0.77 0.19-0.93 0.19v0c-0.227 0-0.427-0.06-0.6-0.18-0.173-0.12-0.26-0.35-0.26-0.69v0c0-1.973 0.117-3.99 0.35-6.05 0.227-2.06 0.43-4.107 0.61-6.14v0c0.033-0.227 0.043-0.437 0.03-0.63-0.007-0.193 0.007-0.407 0.04-0.64v0h-8.94l-1 10.7c-0.013 0.147-0.04 0.287-0.08 0.42-0.04 0.14-0.15 0.25-0.33 0.33v0c-0.067 0.033-0.39 0.153-0.97 0.36-0.573 0.2-1.24 0.437-2 0.71-0.753 0.267-1.5 0.533-2.24 0.8-0.74 0.267-1.307 0.473-1.7 0.62v0c-0.193 0.087-0.433 0.173-0.72 0.26-0.287 0.087-0.567 0.13-0.84 0.13v0c-0.227 0-0.427-0.063-0.6-0.19-0.173-0.133-0.26-0.37-0.26-0.71v0c0-0.78 0.03-1.67 0.09-2.67 0.053-1 0.123-2.05 0.21-3.15 0.08-1.1 0.177-2.227 0.29-3.38 0.113-1.16 0.227-2.3 0.34-3.42v0l0.05-0.71c-1.32 0-2.277-0.037-2.87-0.11-0.593-0.073-0.89-0.263-0.89-0.57v0c0-0.213 0.123-0.49 0.37-0.83v0c0.32-0.46 0.697-1.01 1.13-1.65 0.433-0.64 0.85-1.273 1.25-1.9 0.393-0.627 0.75-1.19 1.07-1.69 0.32-0.493 0.527-0.813 0.62-0.96v0l0.56-5.89c0-0.033 0.017-0.277 0.05-0.73 0.033-0.453 0.073-0.993 0.12-1.62 0.053-0.627 0.107-1.273 0.16-1.94 0.06-0.673 0.113-1.243 0.16-1.71v0c0.033-0.573 0.08-0.973 0.14-1.2 0.053-0.227 0.243-0.38 0.57-0.46v0l8.3-2.03c0.213-0.067 0.433-0.1 0.66-0.1v0c0.227 0 0.38 0.07 0.46 0.21 0.087 0.14 0.13 0.42 0.13 0.84v0c-0.113 1.173-0.203 2.24-0.27 3.2-0.067 0.96-0.137 1.857-0.21 2.69-0.073 0.827-0.15 1.613-0.23 2.36-0.08 0.753-0.193 1.52-0.34 2.3v0l-0.49 3.78 8.86-0.09c0.147-2.167 0.31-4.007 0.49-5.52 0.18-1.513 0.293-2.71 0.34-3.59v0c0.047-0.833 0.08-1.427 0.1-1.78 0.013-0.36 0.02-0.563 0.02-0.61zM162.62 0.78v0l1.22-16.7c0.407-5.6 0.71-9.71 0.91-12.33 0.193-2.62 0.29-3.92 0.29-3.9v0c0.013-0.293 0.03-0.54 0.05-0.74 0.013-0.193 0.047-0.353 0.1-0.48 0.047-0.133 0.11-0.233 0.19-0.3 0.08-0.06 0.203-0.107 0.37-0.14v0l8.44-2.03c0.213-0.067 0.433-0.1 0.66-0.1v0c0.233 0 0.39 0.07 0.47 0.21 0.08 0.14 0.12 0.42 0.12 0.84v0c-0.113 1.013-0.203 1.957-0.27 2.83-0.067 0.88-0.12 1.72-0.16 2.52-0.04 0.8-0.077 1.57-0.11 2.31-0.033 0.74-0.073 1.477-0.12 2.21v0c-0.1 0.793-0.187 1.59-0.26 2.39-0.073 0.793-0.14 1.62-0.2 2.48-0.067 0.853-0.137 1.757-0.21 2.71-0.073 0.947-0.16 1.983-0.26 3.11v0l-1.07 12.87c-0.02 0.14-0.05 0.28-0.09 0.42-0.04 0.14-0.15 0.25-0.33 0.33v0c-0.013 0-0.11 0.033-0.29 0.1-0.18 0.067-0.417 0.153-0.71 0.26-0.293 0.1-0.633 0.21-1.02 0.33-0.393 0.113-0.81 0.217-1.25 0.31v0c-0.733 0.167-1.37 0.33-1.91 0.49-0.547 0.167-1.033 0.317-1.46 0.45-0.42 0.14-0.81 0.25-1.17 0.33-0.36 0.08-0.717 0.12-1.07 0.12v0c-0.247 0-0.45-0.063-0.61-0.19-0.167-0.133-0.25-0.37-0.25-0.71zM203.25-20.07v0c-0.067 0.247-0.19 0.597-0.37 1.05-0.18 0.46-0.383 0.977-0.61 1.55-0.227 0.58-0.48 1.19-0.76 1.83-0.273 0.647-0.54 1.277-0.8 1.89v0c-0.113 0.28-0.247 0.487-0.4 0.62-0.16 0.127-0.473 0.197-0.94 0.21v0l-7.13 0.13-0.88 10.84c-0.02 0.147-0.06 0.287-0.12 0.42-0.067 0.14-0.167 0.25-0.3 0.33v0c-0.047 0.033-0.237 0.127-0.57 0.28-0.333 0.16-0.753 0.343-1.26 0.55-0.507 0.213-1.06 0.443-1.66 0.69-0.6 0.24-1.193 0.463-1.78 0.67-0.587 0.2-1.123 0.37-1.61 0.51-0.487 0.14-0.87 0.21-1.15 0.21v0c-0.327 0-0.623-0.06-0.89-0.18-0.267-0.127-0.4-0.377-0.4-0.75v0c-0.02-0.813 0-1.713 0.06-2.7 0.053-0.98 0.12-1.98 0.2-3 0.087-1.02 0.177-2.02 0.27-3 0.1-0.987 0.183-1.887 0.25-2.7v0l0.17-2.05c-1.367 0-2.343-0.037-2.93-0.11-0.587-0.073-0.88-0.263-0.88-0.57v0c0-0.213 0.123-0.49 0.37-0.83v0c0.34-0.473 0.727-1.043 1.16-1.71 0.427-0.667 0.84-1.32 1.24-1.96 0.4-0.633 0.75-1.193 1.05-1.68 0.3-0.487 0.49-0.787 0.57-0.9v0l0.47-6.72c-0.313 0-0.583 0.003-0.81 0.01-0.227 0.013-0.433 0.023-0.62 0.03-0.187 0.007-0.36 0.013-0.52 0.02-0.167 0.007-0.34 0.01-0.52 0.01v0c-0.78 0-1.337-0.043-1.67-0.13-0.333-0.087-0.5-0.253-0.5-0.5v0c0-0.113 0.097-0.35 0.29-0.71 0.2-0.36 0.44-0.77 0.72-1.23 0.287-0.467 0.597-0.957 0.93-1.47 0.333-0.507 0.63-0.98 0.89-1.42v0l1.47-2.49 11.1-0.39c1.433-0.053 2.86-0.107 4.28-0.16 1.413-0.06 2.72-0.113 3.92-0.16 1.193-0.053 2.22-0.1 3.08-0.14 0.867-0.04 1.47-0.067 1.81-0.08v0c0.02 0 0.063 0.003 0.13 0.01 0.073 0.007 0.153 0.03 0.24 0.07 0.08 0.04 0.157 0.11 0.23 0.21 0.073 0.1 0.11 0.24 0.11 0.42v0c0 0.093-0.113 0.417-0.34 0.97-0.227 0.553-0.553 1.377-0.98 2.47v0l-1.07 2.83c-0.113 0.28-0.243 0.493-0.39 0.64-0.147 0.14-0.457 0.22-0.93 0.24v0c-0.553 0.013-1.117 0.037-1.69 0.07-0.567 0.033-1.15 0.067-1.75 0.1v0l-7.43 0.37c-0.093 0.633-0.16 1.103-0.2 1.41-0.047 0.313-0.073 0.57-0.08 0.77-0.007 0.207-0.01 0.41-0.01 0.61 0 0.207-0.007 0.53-0.02 0.97v0c-0.02 0.307-0.04 0.567-0.06 0.78-0.027 0.207-0.053 0.413-0.08 0.62-0.02 0.207-0.043 0.423-0.07 0.65-0.027 0.227-0.047 0.51-0.06 0.85v0c1.073-0.033 2.127-0.067 3.16-0.1 1.033-0.027 1.987-0.057 2.86-0.09 0.867-0.033 1.617-0.063 2.25-0.09 0.64-0.027 1.09-0.04 1.35-0.04v0c0.127 0 0.273 0.05 0.44 0.15 0.16 0.1 0.24 0.287 0.24 0.56v0c0 0.133-0.023 0.28-0.07 0.44zM207.84-32.52v0c0.093-0.067 0.26-0.153 0.5-0.26 0.233-0.1 0.51-0.217 0.83-0.35 0.313-0.133 0.653-0.277 1.02-0.43 0.367-0.153 0.737-0.303 1.11-0.45v0l2.84-1.12c0.207-0.1 0.4-0.15 0.58-0.15v0c0.133 0 0.277 0.037 0.43 0.11 0.153 0.073 0.327 0.207 0.52 0.4v0l5.64 10.94 0.15-0.36 2.42-4.47c0.307-0.553 0.61-1.1 0.91-1.64 0.3-0.533 0.57-1.013 0.81-1.44 0.233-0.42 0.433-0.76 0.6-1.02 0.16-0.26 0.257-0.39 0.29-0.39v0l8.37-2.1c0.2-0.053 0.363-0.08 0.49-0.08v0c0.373 0 0.56 0.173 0.56 0.52v0c-0.013 0.08-0.03 0.19-0.05 0.33-0.013 0.133-0.06 0.283-0.14 0.45v0l-7.18 13.3c-0.36 0.667-0.723 1.333-1.09 2-0.367 0.673-0.72 1.307-1.06 1.9-0.34 0.593-0.643 1.133-0.91 1.62-0.273 0.487-0.49 0.887-0.65 1.2v0l-0.17 0.8-1.37 9.16c-0.047 0.273-0.087 0.5-0.12 0.68-0.033 0.18-0.08 0.327-0.14 0.44-0.053 0.113-0.127 0.21-0.22 0.29-0.087 0.087-0.21 0.17-0.37 0.25v0l-6.94 3.64c-0.26 0.127-0.53 0.23-0.81 0.31-0.287 0.08-0.56 0.12-0.82 0.12v0c-0.28 0-0.517-0.06-0.71-0.18-0.193-0.12-0.29-0.32-0.29-0.6v0-0.09c0.06-0.933 0.177-2.013 0.35-3.24 0.173-1.227 0.357-2.427 0.55-3.6v0l1.37-9.06c-0.26-0.553-0.603-1.287-1.03-2.2-0.42-0.907-0.877-1.89-1.37-2.95-0.487-1.06-0.993-2.15-1.52-3.27-0.533-1.127-1.03-2.19-1.49-3.19-0.467-1-0.883-1.883-1.25-2.65-0.367-0.76-0.637-1.32-0.81-1.68v0c-0.087-0.247-0.13-0.5-0.13-0.76v0c0-0.147 0.02-0.287 0.06-0.42 0.047-0.14 0.127-0.243 0.24-0.31z" data-fill-palette-color="primary" fill="#010c80" opacity="1"></path></g></svg></g></svg></g><g transform="matrix(1,0,0,1,0,88.96194661787983)"><svg viewBox="0 0 232.209792 27.66754968510638" height="27.66754968510638" width="232.209792"><g transform="matrix(1,0,0,1,0,0)"><svg width="232.209792" viewBox="0.05000000447034836 -36.79999923706055 317.2200012207031 37.79999923706055" height="27.66754968510638" data-palette-color="#0080ff"><path d="M47.3-32.7L47.6-31.1 43.8-29.45 35.4 0.1Q32.25 0.65 29.1 0.6L29.1 0.6 23.7-17.85 22.65-12.05 18.9 0.1 18.85 0.05 18.85 0.1Q15.7 0.65 12.65 0.6L12.65 0.6 3.65-29.8 0.05-30.25 0.1-32.7 14.1-32.7 14.4-31.1 10.15-29.3 15.35-10.25 15.85-4 16.05-4 21.9-23.95 19.9-30.8 25.9-32.25 31.6-10.45 32.2-4 32.35-4 39.3-29.6 34.35-30.25 34.4-32.7 47.3-32.7ZM62.5-12.4L49.75-12.6Q49.75-8.35 51.97-6 54.2-3.65 57.65-3.65L57.65-3.65Q60.35-3.65 64.05-5.35L64.05-5.35 64.95-3 57.15 0.7Q51.35 1 47.62-2.45 43.9-5.9 43.9-11.45L43.9-11.45Q43.9-16.85 47.37-20.73 50.85-24.6 55.8-24.6L55.8-24.6Q60-24.6 62.72-21.98 65.45-19.35 65.4-15.2L65.4-15.2 62.5-12.4ZM53.65-21.2L53.65-21.2Q51-19.7 50.1-15.6L50.1-15.6 59.85-16.1Q59.45-18.4 57.72-19.83 56-21.25 53.65-21.2ZM90.9-4.2L91.5-2 85.95 0.8Q85 0.7 83.75-0.33 82.5-1.35 81.85-2.75L81.85-2.75 76.35 0.7 75 0.8Q71.95 0.8 69.97-1 68-2.8 68-5.35L68-5.35Q68-8.95 71.7-10.9L71.7-10.9 81.35-11.15 81.35-15.95Q81.35-19.95 78.95-21.2L78.95-21.2Q76.3-21.1 74.25-20.4L74.25-20.4 73.6-15.1 70.2-14.95Q68.85-17.75 68.95-21.45L68.95-21.45Q71.4-22.7 75.17-23.75 78.95-24.8 80.7-24.8L80.7-24.8Q82.4-24.8 84.07-23.73 85.75-22.65 86.65-21.25L86.65-21.25Q87.2-20.25 87.25-17.45L87.25-17.45 87.25-4.9Q87.25-3.85 88.5-3.85L88.5-3.85 90.9-4.2ZM75.15-3.3L75.15-3.3Q77.55-3.3 81.35-4.8L81.35-4.8 81.35-8.4 79.6-8.45Q74-8.45 74-5.55L74-5.55Q74-4.1 75.15-3.3ZM113.14-23.05L113.14-23.05Q113.24-18.75 111.79-14.25L111.79-14.25 108.54-14.25 107.74-19.85Q104.34-17.6 101.84-14.45L101.84-14.45 101.84-3.75Q105.59-3.25 107.04-2.4L107.04-2.4 106.84 0 92.49 0 92.29-1.7Q93.89-2.5 95.99-3.15L95.99-3.15 95.99-20.35 92.24-20.4 91.74-22.8Q95.19-24.2 99.59-24.45L99.59-24.45 101.84-22.45 101.84-18.2 106.94-23.75Q108.14-24.25 109.49-24.25L109.49-24.25Q111.64-24.25 113.14-23.05ZM157.39-33L157.39-33 157.44-31.7Q157.44-27.8 156.74-23.5L156.74-23.5 153.34-23.5 152.69-29.15 145.39-29.55 145.39-3.15 150.84-2.45 150.79 0 134.34 0 134.04-1.6 137.69-3 139.29-3.55 139.29-29.55 131.99-29.15 131.34-23.5 127.99-23.5Q127.29-27.6 127.29-31.4L127.29-31.4 127.34-33 142.44-32.8Q150.39-32.8 157.39-33ZM182.74-16.4L182.74-3.6Q185.04-3.1 186.34-2.4L186.34-2.4 186.14 0 174.29 0 174.09-1.7 176.89-2.85 176.89-14.6Q176.89-19.75 173.74-19.75L173.74-19.75Q171.64-19.75 167.59-17.2L167.59-17.2 167.59-3.55Q169.64-3 170.69-2.4L170.69-2.4 170.49 0 158.19 0 157.99-1.7Q159.54-2.45 161.74-3.15L161.74-3.15 161.74-32.65 157.99-32.75 157.49-35.15Q160.94-36.55 165.34-36.8L165.34-36.8 167.59-34.8 167.59-19.6Q173.44-23.85 176.74-24.4L176.74-24.4Q178.24-24.2 179.76-23.25 181.29-22.3 182.09-20.95L182.09-20.95Q182.69-19.85 182.74-16.4L182.74-16.4ZM205.83-12.4L193.08-12.6Q193.08-8.35 195.31-6 197.53-3.65 200.98-3.65L200.98-3.65Q203.68-3.65 207.38-5.35L207.38-5.35 208.28-3 200.48 0.7Q194.68 1 190.96-2.45 187.23-5.9 187.23-11.45L187.23-11.45Q187.23-16.85 190.71-20.73 194.18-24.6 199.13-24.6L199.13-24.6Q203.33-24.6 206.06-21.98 208.78-19.35 208.73-15.2L208.73-15.2 205.83-12.4ZM196.98-21.2L196.98-21.2Q194.33-19.7 193.43-15.6L193.43-15.6 203.18-16.1Q202.78-18.4 201.06-19.83 199.33-21.25 196.98-21.2ZM245.08-17.4L245.08-17.4Q249.08-16.8 251.28-14.48 253.48-12.15 253.48-9.05L253.48-9.05Q253.48-5.05 249.95-2.58 246.43-0.1 240.48 0L240.48 0 224.68 0 224.38-1.6 228.63-3.4 228.63-29.85 225.08-30.2 225.13-32.7Q233.83-33.1 239.48-33.1 245.13-33.1 248.48-30.8 251.83-28.5 251.83-24.7L251.83-24.7Q251.83-22.1 250.1-20 248.38-17.9 245.08-17.4ZM240.93-29.7L234.73-28.95 234.73-18.6 237.18-18.6Q241.33-18.6 243.35-20.2 245.38-21.8 245.38-24.15L245.38-24.15Q245.38-26.05 244.13-27.68 242.88-29.3 240.93-29.7L240.93-29.7ZM234.73-3.85L239.23-3.45 240.23-3.4Q243.38-3.4 245.08-5.05 246.78-6.7 246.78-9.05L246.78-9.05Q246.78-11.75 244.65-13.68 242.53-15.6 239.28-15.6L239.28-15.6 234.73-15.6 234.73-3.85ZM274.63-12.4L261.88-12.6Q261.88-8.35 264.1-6 266.32-3.65 269.78-3.65L269.78-3.65Q272.48-3.65 276.18-5.35L276.18-5.35 277.07-3 269.28 0.7Q263.48 1 259.75-2.45 256.03-5.9 256.03-11.45L256.03-11.45Q256.03-16.85 259.5-20.73 262.98-24.6 267.93-24.6L267.93-24.6Q272.13-24.6 274.85-21.98 277.57-19.35 277.53-15.2L277.53-15.2 274.63-12.4ZM265.78-21.2L265.78-21.2Q263.13-19.7 262.23-15.6L262.23-15.6 271.98-16.1Q271.57-18.4 269.85-19.83 268.13-21.25 265.78-21.2ZM285.77-18.7L285.77-18.7Q285.77-17.2 287.02-16.28 288.27-15.35 290.87-14.2L290.87-14.2 294.22-12.5Q298.17-10.25 298.17-6.4L298.17-6.4Q298.17-3.15 295.62-1.07 293.07 1 289.02 1L289.02 1Q284.42 1 279.62-1.65L279.62-1.65 281.82-6.75Q286.32-3.5 291.42-2.5L291.42-2.5Q292.62-3.55 292.62-5.05L292.62-5.05Q292.62-6.45 291.6-7.43 290.57-8.4 286.82-10.1 283.07-11.8 281.72-13.43 280.37-15.05 280.37-17.2L280.37-17.2Q280.37-20.6 283.27-22.6 286.17-24.6 290.37-24.6L290.37-24.6Q294.22-24.6 297.22-23.05L297.22-23.05 297.27-23.05 297.32-21.85Q297.32-19.05 296.42-16.4L296.42-16.4 293.17-16.4 292.42-20.6Q289.77-21.45 287.47-21.3L287.47-21.3Q285.77-20.4 285.77-18.7ZM311.97-4.1L311.97-4.1Q313.32-4.1 316.37-5.05L316.37-5.05 317.02-2.65 309.97 0.8Q307.97 0.9 306.17-0.6 304.37-2.1 304.37-3.9L304.37-3.9 304.37-19.15 301.12-19.1 300.82-21.6Q302.87-22.75 304.62-23.35L304.62-23.35 306.82-29.75 309.72-29.75 310.12-23.5 317.12-23.5 317.27-21.7 314.87-19.05 310.22-19.05 310.22-6.65Q310.22-5.25 310.6-4.67 310.97-4.1 311.97-4.1Z" opacity="1" transform="matrix(1,0,0,1,0,0)" fill="#0080ff" class="undefined-text-1" data-fill-palette-color="secondary" id="text-1"></path></svg></g></svg></g></svg></g></svg></g><g transform="matrix(1,0,0,1,0,14.870260778630737)"><svg viewBox="0 0 104.22675223659493 87.47212222723965" height="87.47212222723965" width="104.22675223659493"><g><svg xmlns="http://www.w3.org/2000/svg" xmlns:xlink="http://www.w3.org/1999/xlink" version="1.1" x="0" y="0" viewBox="1 4.900000095367432 47.90000534057617 40.19999694824219" style="enable-background:new 0 0 50 50;" xml:space="preserve" height="87.47212222723965" width="104.22675223659493" class="icon-icon-0" data-fill-palette-color="accent" id="icon-0"><path d="M37.4 4.9h-6.2c0 3.4-2.8 6.2-6.2 6.2-3.4 0-6.2-2.8-6.2-6.2h-6.2L1 16.6 7.4 23l5.2-5.2v27.3h24.7V17.8l5.2 5.2 6.4-6.4L37.4 4.9z" fill="#0023ff" data-fill-palette-color="accent"></path></svg></g></svg></g></svg></g></svg><rect width="395.52" height="86.18689228886926" fill="none" stroke="none" visibility="hidden"></rect></g></svg></g></svg>